<!--?xml version="1.0" encoding="utf-8"?-->
<!-- Generator: Adobe Illustrator 18.1.1, SVG Export Plug-In . SVG Version: 6.00 Build 0)  -->

<svg version="1.1" id="_x32_" xmlns="http://www.w3.org/2000/svg" xmlns:xlink="http://www.w3.org/1999/xlink" x="0px" y="0px" viewBox="0 0 512 512" style="width: 32px; height: 32px; opacity: 1;" xml:space="preserve">
<style type="text/css">
	.st0{fill:#4B4B4B;}
</style>
<g>
	<path class="st0" d="M382.249,186.492c44.544,0,80.654-36.106,80.654-80.654s-36.11-80.654-80.654-80.654
		c-44.548,0-80.658,36.106-80.658,80.654S337.7,186.492,382.249,186.492z" style="fill: rgb(75, 75, 75);"></path>
	<rect y="446.003" class="st0" width="512" height="53.3" style="fill: rgb(75, 75, 75);"></rect>
	<path class="st0" d="M357.7,431.976h111.517V294.509c0-48.026-38.938-86.973-86.968-86.973c-48.034,0-86.972,38.947-86.972,86.973
		v81.353H357.7V431.976z" style="fill: rgb(75, 75, 75);"></path>
	<polygon class="st0" points="127.419,431.976 261.847,431.976 343.67,431.976 343.67,389.888 242.498,389.888 199.892,274.164 
		1.173,274.164 63.123,431.976 	" style="fill: rgb(75, 75, 75);"></polygon>
	<path class="st0" d="M60.637,104.537l50.938,39.3c0.216,0.168,0.473,0.257,0.708,0.408c0.115,0.053,0.213,0.123,0.319,0.177
		c4.402,2.451,10.239,1.159,14.124-3.124c0.11-0.133,0.23-0.204,0.345-0.336l62.424-73.84c3.553-3.991,3.611-9.725,0.155-12.805
		c-3.469-3.088-9.15-2.336-12.698,1.646l-58.34,62.336L73.548,86.927c-4.212-3.106-10.531-1.673-14.093,3.212
		C55.889,94.988,56.411,101.448,60.637,104.537z" style="fill: rgb(75, 75, 75);"></path>
	<path class="st0" d="M107.203,213.005c0,6.867,5.562,12.416,12.42,12.416s12.42-5.549,12.42-12.416
		c0-6.868-5.562-12.425-12.42-12.425S107.203,206.137,107.203,213.005z" style="fill: rgb(75, 75, 75);"></path>
	<path class="st0" d="M119.623,37.537c6.858,0,12.42-5.558,12.42-12.424c0-6.867-5.562-12.416-12.42-12.416
		s-12.42,5.549-12.42,12.416C107.203,31.98,112.765,37.537,119.623,37.537z" style="fill: rgb(75, 75, 75);"></path>
	<path class="st0" d="M177.264,176.704c-4.849,4.85-4.849,12.716,0,17.566c4.855,4.849,12.721,4.849,17.571,0
		c4.845-4.841,4.849-12.716,0-17.566C189.98,171.854,182.118,171.854,177.264,176.704z" style="fill: rgb(75, 75, 75);"></path>
	<path class="st0" d="M61.978,61.422c4.854-4.849,4.854-12.716,0-17.574c-4.854-4.85-12.717-4.841-17.566,0
		c-4.845,4.858-4.85,12.726,0,17.574C49.265,66.272,57.128,66.263,61.978,61.422z" style="fill: rgb(75, 75, 75);"></path>
	<path class="st0" d="M213.565,131.484c6.858,0,12.425-5.558,12.42-12.425c0.005-6.85-5.558-12.408-12.42-12.408
		c-6.863,0-12.42,5.558-12.42,12.416C201.144,125.926,206.702,131.484,213.565,131.484z" style="fill: rgb(75, 75, 75);"></path>
	<path class="st0" d="M25.686,131.484c6.862,0,12.416-5.558,12.42-12.417c0-6.858-5.562-12.433-12.425-12.416
		c-6.862,0-12.416,5.558-12.42,12.408C13.266,125.926,18.823,131.484,25.686,131.484z" style="fill: rgb(75, 75, 75);"></path>
	<path class="st0" d="M44.416,176.713c-4.85,4.849-4.846,12.716-0.005,17.557c4.858,4.849,12.721,4.858,17.579,0.009
		c4.85-4.85,4.841-12.726,0-17.566C57.132,171.854,49.265,171.854,44.416,176.713z" style="fill: rgb(75, 75, 75);"></path>
</g>
</svg>
